<svg xmlns="http://www.w3.org/2000/svg" width="1em" height="1em" viewBox="0 0 256 256"><path fill="currentColor" d="M152 164v49.2a8.1 8.1 0 0 1-4.5 7.2a8.5 8.5 0 0 1-3.5.8a7.9 7.9 0 0 1-4.9-1.7l-19.1-15v3.5a16 16 0 0 1-16 16H48a16 16 0 0 1-16-16v-40a16 16 0 0 1 16-16h56a16 16 0 0 1 16 16v4l19.2-14.4A8 8 0 0 1 152 164Zm64-76v128a16 16 0 0 1-16 16h-32a8 8 0 0 1 0-16h32V96h-48a8 8 0 0 1-8-8V40H56v80a8 8 0 0 1-16 0V40a16 16 0 0 1 16-16h96a8.1 8.1 0 0 1 5.7 2.3l56 56A8.1 8.1 0 0 1 216 88Zm-27.3-8L160 51.3V80Z"/></svg>