<?xml version="1.0" encoding="UTF-8" standalone="no"?>
<!-- Created with Inkscape (http://www.inkscape.org/) -->

<svg width="1579" height="575" viewBox="0 0 417.77678 152.13555" version="1.1" id="svg5" inkscape:version="1.2.2 (1:1.2.2+202212051550+b0a8486541)" sodipodi:docname="vimfootball.svg" xmlns:inkscape="http://www.inkscape.org/namespaces/inkscape" xmlns:sodipodi="http://sodipodi.sourceforge.net/DTD/sodipodi-0.dtd" xmlns="http://www.w3.org/2000/svg" xmlns:svg="http://www.w3.org/2000/svg">
  <sodipodi:namedview id="namedview7" pagecolor="#ffffff" bordercolor="#000000" borderopacity="0.25" inkscape:showpageshadow="2" inkscape:pageopacity="0.0" inkscape:pagecheckerboard="0" inkscape:deskcolor="#d1d1d1" inkscape:document-units="mm" showgrid="false" inkscape:zoom="0.5" inkscape:cx="397" inkscape:cy="693" inkscape:window-width="1920" inkscape:window-height="1022" inkscape:window-x="0" inkscape:window-y="0" inkscape:window-maximized="1" inkscape:current-layer="layer1" />
  <defs id="defs2" />
  <g inkscape:label="Layer 1" inkscape:groupmode="layer" id="layer1">
    <g id="layer1-3" transform="matrix(0.26458333,0,0,0.26458333,-16.998992,-34.174399)">
      <g id="g3699" transform="matrix(1.532388,0,0,1.3939671,-54.912136,-41.792396)">
        <path id="path2836" d="M 260.50744,170.69515 105.98412,340.79094 259.8636,510.178 414.38691,340.08221 Z" style="fill:#019833;fill-opacity:1;stroke:black;stroke-width:0.945716px;stroke-linecap:butt;stroke-linejoin:miter;stroke-opacity:1" />
        <path id="path2838" d="M 259.8636,171.40389 V 156.52051 L 91.819492,341.49967 h 14.164628 z" style="fill:#66fe98;fill-opacity:1;stroke:black;stroke-width:0.945716px;stroke-linecap:butt;stroke-linejoin:miter;stroke-opacity:1" />
        <path style="fill:#45fe02;fill-opacity:1;stroke:black;stroke-width:0.945716px;stroke-linecap:butt;stroke-linejoin:miter;stroke-opacity:1" d="m 259.47729,171.40389 v -14.88338 l 168.0441,184.97916 h -14.16463 z" id="path2840" />
        <path style="fill:#017d17;fill-opacity:1;stroke:black;stroke-width:0.945716px;stroke-linecap:butt;stroke-linejoin:miter;stroke-opacity:1" d="M 259.8636,511.17022 V 526.0536 L 91.819492,341.07444 h 14.164628 z" id="path2842" />
        <path id="path3650" d="m 122.99448,175.30643 h 108.35396 l 6.60139,7.26665 v 22.30116 l -5.23559,7.01608 H 220.87725 V 322.64438 L 322.85744,211.89032 H 306.0125 l -5.9185,-7.01608 v -23.55403 l 5.46323,-5.51264 h 109.71976 l 5.46322,6.01379 v 22.05058 L 172.61878,484.01452 H 144.39212 L 136.22179,478.822 V 210.88803 h -13.68257 l -5.00795,-5.51264 v -23.55403 z" style="fill:none;stroke:black;stroke-width:18.9143;stroke-linecap:butt;stroke-linejoin:miter;stroke-miterlimit:4;stroke-dasharray:none;stroke-opacity:1" />
        <path id="path2844" d="M 259.47729,511.17022 V 526.0536 L 427.52139,341.07444 H 413.35676 Z" style="fill:#005d04;fill-opacity:1;stroke:black;stroke-width:0.945716px;stroke-linecap:butt;stroke-linejoin:miter;stroke-opacity:1" />
        <path style="fill:none;stroke:black;stroke-width:5.67429;stroke-linecap:butt;stroke-linejoin:miter;stroke-miterlimit:4;stroke-dasharray:none;stroke-opacity:1" d="M 259.41018,155.14848 90.734026,340.82339 258.70737,525.72467 427.38353,340.04975 Z" id="path2846" />
        <path id="path3640" d="m 232.50008,186.64163 6.11655,-3.54366 -6.27751,-6.91014 H 123.04607 l -5.55319,6.11281 v 23.1224 l 6.15679,6.77725 2.93756,-6.77725 -3.86308,-4.2524 v -16.30085 l 2.89731,-2.83492 H 229.9247 Z" style="fill:#fefefe;fill-opacity:1;stroke:black;stroke-width:0.945716px;stroke-linecap:butt;stroke-linejoin:miter;stroke-opacity:1" />
        <path transform="matrix(0.90138601,0,0,0.99222542,-437.42287,-185.30615)" d="m 828.9375,369.5 -4.28125,4.28125 V 389.5 l 3.75,3.75 h 19.8125 v 15.1875 L 717.15625,541.28125 V 393.4375 h 21.78125 l 4.46875,-4.46875 V 373.0625 l -4.125,-3.1875 h -114.625 l -3.75,3.75 v 16.25 l 3.8125,3.8125 h 19.9375 v 272.25 l 3.75,3.75 H 671.0625 L 945.71875,386.28125 v -12.5 L 941.4375,369.5 Z" id="path3632" style="fill:none;stroke:black;stroke-width:1px;stroke-linecap:butt;stroke-linejoin:miter;stroke-opacity:1" />
        <path id="path3646" d="m 143.48158,204.87424 v 270.62073 l 3.18688,4.0092 -2.49916,5.24301 -7.06148,-7.74876 v -265.1081 z" style="fill:#fefefe;fill-opacity:1;stroke:black;stroke-width:0.945716px;stroke-linecap:butt;stroke-linejoin:miter;stroke-opacity:1" />
        <path id="path3644" d="m 125.82451,204.87424 -1.82108,6.51494 h 13.2028 l 7.2843,-6.51494 z" style="fill:gray;fill-opacity:1;stroke:black;stroke-width:0.945716px;stroke-linecap:butt;stroke-linejoin:miter;stroke-opacity:1" />
        <path id="path3638" d="m 307.18636,212.19144 2.89731,-6.55577 -4.18501,-4.2524 v -14.52901 l 4.82886,-5.31551 H 411.4896 l 3.86308,5.66987 5.4727,-4.2524 -5.63366,-6.20141 H 306.86443 l -5.39221,5.93564 v 23.29957 l 5.59342,5.80276 m -87.54309,111.87785 -10.52288,28.10566 118.7898,-131.1155 v -15.59211 z" style="fill:#fefefe;fill-opacity:1;stroke:black;stroke-width:0.945716px;stroke-linecap:butt;stroke-linejoin:miter;stroke-opacity:1" />
        <path id="path3642" d="m 232.25896,185.83056 5.2356,-3.75862 v 22.8023 l -6.03231,6.64023 h -11.72317 v 112.38277 l -10.69882,27.81381 V 204.87424 h 19.57656 l 3.64214,-3.25747 z" style="fill:gray;fill-opacity:1;stroke:black;stroke-width:0.945716px;stroke-linecap:butt;stroke-linejoin:miter;stroke-opacity:1" />
        <path transform="matrix(0.90138601,0,0,0.99222542,-437.42287,-185.30615)" d="m 828.9375,369.5 -4.28125,4.28125 V 389.5 l 3.75,3.75 h 19.8125 v 15.1875 L 717.15625,541.28125 V 393.4375 h 21.78125 l 4.46875,-4.46875 V 373.0625 l -4.125,-3.1875 h -114.625 l -3.75,3.75 v 16.25 l 3.8125,3.8125 h 19.9375 v 272.25 l 3.75,3.75 H 671.0625 L 945.71875,386.28125 v -12.5 L 941.4375,369.5 Z" id="path3622" style="fill:#ccc;fill-opacity:1;stroke:black;stroke-width:1px;stroke-linecap:butt;stroke-linejoin:miter;stroke-opacity:1" />
        <path id="path3636" d="m 415.35268,185.9329 5.49849,-3.49448 v 21.92152 L 171.46006,484.88124 H 144.9826 l 2.52966,-5.5331 h 20.28119 L 415.03076,198.33573 Z" style="fill:gray;fill-opacity:1;stroke:black;stroke-width:0.945716px;stroke-linecap:butt;stroke-linejoin:miter;stroke-opacity:1" />
        <path id="path3652" d="m 327.29631,205.25009 -5.57703,6.38966 h -14.56861 l 3.41452,-6.38966 c 0.11382,0 16.73112,0 16.73112,0 z" style="fill:gray;fill-opacity:1;stroke:black;stroke-width:0.945716px;stroke-linecap:butt;stroke-linejoin:miter;stroke-opacity:1" />
        <g transform="matrix(0.90138601,0,0,0.99222542,-92.530288,-192.23791)" id="g3673">
          <path style="fill:#ccc;fill-opacity:1;stroke:black;stroke-width:8;stroke-linecap:butt;stroke-linejoin:miter;stroke-miterlimit:10;stroke-dasharray:none;stroke-opacity:1" id="path3671" d="m 399.78125,560 a 1.2330102,1.2330102 0 0 0 -0.5625,0.28125 l -5.3125,4.5625 A 1.2330102,1.2330102 0 0 0 393.5625,565.375 L 388.25,580.25 a 1.2330102,1.2330102 0 0 0 0.28125,1.28125 l 4.0625,4.0625 a 1.2330102,1.2330102 0 0 0 0.875,0.34375 H 409.875 a 1.2330102,1.2330102 0 0 0 0.875,-0.34375 l 4.28125,-4.3125 a 1.2330102,1.2330102 0 0 0 0.3125,-0.53125 l 4.5625,-15.65625 a 1.2330102,1.2330102 0 0 0 -0.3125,-1.21875 l -3.53125,-3.53125 A 1.2330102,1.2330102 0 0 0 415.1875,560 h -15.15625 a 1.2330102,1.2330102 0 0 0 -0.25,0 z m -30.0625,41.9375 a 1.2330102,1.2330102 0 0 0 -0.9375,0.90625 l -2.03125,8.0625 a 1.2330102,1.2330102 0 0 0 1.1875,1.53125 h 9.65625 l -23.9375,68.34375 a 1.2330102,1.2330102 0 0 0 1.15625,1.625 h 34.84375 a 1.2330102,1.2330102 0 0 0 1.1875,-0.84375 l 2.28125,-7.34375 a 1.2330102,1.2330102 0 0 0 -1.1875,-1.59375 h -7.875 L 407.75,603.5625 a 1.2330102,1.2330102 0 0 0 -1.15625,-1.625 h -36.625 a 1.2330102,1.2330102 0 0 0 -0.25,0 z m 110.875,0.25 a 1.2330102,1.2330102 0 0 0 -0.6875,0.40625 l -7.25,8.1875 H 461.125 l -7.6875,-7.96875 a 1.2330102,1.2330102 0 0 0 -0.875,-0.375 H 425.03125 A 1.2330102,1.2330102 0 0 0 423.875,603.25 l -2.53125,7.5625 a 1.2330102,1.2330102 0 0 0 1.15625,1.625 h 7.375 l -22.9375,67.59375 a 1.2330102,1.2330102 0 0 0 1.15625,1.625 h 29.3125 a 1.2330102,1.2330102 0 0 0 1.15625,-0.8125 l 2.25,-6.59375 a 1.2330102,1.2330102 0 0 0 -1.15625,-1.625 h -5.125 l 14.625,-46.03125 H 475.625 l -16.6875,53.46875 a 1.2330102,1.2330102 0 0 0 1.1875,1.59375 h 28.28125 a 1.2330102,1.2330102 0 0 0 1.125,-0.75 l 2.53125,-6.0625 a 1.2330102,1.2330102 0 0 0 -1.125,-1.6875 h -5.125 l 14.875,-46.8125 h 25.1875 l -16.9375,53.71875 a 1.2330102,1.2330102 0 0 0 1.1875,1.59375 h 31.0625 a 1.2330102,1.2330102 0 0 0 1.15625,-0.78125 l 2.53125,-6.59375 a 1.2330102,1.2330102 0 0 0 -1.15625,-1.65625 h -6.15625 l 18.71875,-60.78125 a 1.2330102,1.2330102 0 0 0 -0.1875,-1.125 l -5.8125,-7.8125 a 1.2330102,1.2330102 0 0 0 -1,-0.46875 H 527.0625 a 1.2330102,1.2330102 0 0 0 -0.90625,0.375 l -7,7.6875 h -12.25 l -7.25,-7.9375 a 1.2330102,1.2330102 0 0 0 -0.90625,-0.375 h -17.90625 a 1.2330102,1.2330102 0 0 0 -0.25,0 z" />
          <path d="m 400.03125,561.21875 -5.3125,4.5625 -5.3125,14.875 4.0625,4.0625 H 409.875 l 4.28125,-4.3125 4.5625,-15.65625 -3.53125,-3.53125 z m -30.0625,41.9375 -2.03125,8.0625 h 11.375 l -24.5,69.96875 h 34.84375 l 2.28125,-7.34375 h -9.59375 l 24.25,-70.6875 z m 110.875,0.25 L 473.25,612 h -12.625 l -8.0625,-8.34375 h -27.53125 l -2.53125,7.5625 h 9.09375 l -23.5,69.21875 h 29.3125 l 2.25,-6.59375 h -6.8125 L 448.25,625.375 h 29.0625 l -17.1875,55.0625 h 28.28125 l 2.53125,-6.0625 h -6.8125 l 15.65625,-49.25 h 27.78125 l -17.4375,55.3125 h 31.0625 l 2.53125,-6.59375 H 535.875 l 19.21875,-62.375 -5.8125,-7.8125 H 527.0625 l -7.34375,8.0625 h -13.375 l -7.59375,-8.3125 z" id="path3665" style="fill:#ccc;fill-opacity:1;stroke:black;stroke-width:1;stroke-linecap:butt;stroke-linejoin:miter;stroke-miterlimit:10;stroke-dasharray:none;stroke-opacity:1" />
        </g>
      </g>
    </g>
    <g aria-label="ootball" id="text4411" style="font-size:45.5542px;font-family:Courier-Bold;-inkscape-font-specification:Courier-Bold;text-align:center;text-anchor:middle;opacity:1;fill:#ccc;stroke:black;stroke-width:3.223;stroke-linejoin:round;paint-order:markers stroke fill">
      <path d="m 225.07789,129.28417 q -2.1866,2.36882 -5.05652,3.55323 -2.82436,1.13885 -5.69427,1.32107 -0.27333,0.0456 -0.59221,0.0456 -0.27332,0 -0.54665,0 -0.86553,0 -1.73106,-0.0911 -0.86553,-0.0456 -1.63995,-0.22777 -4.14543,-0.68332 -6.14981,-3.91767 -2.00439,-3.23434 -1.22997,-7.19756 0.13667,-0.54665 0.27333,-1.04775 0.13666,-0.54665 0.40999,-1.0933 0.27332,-0.72886 0.63776,-1.45773 0.40998,-0.72887 0.86552,-1.41218 2.0955,-3.05213 5.46651,-4.69208 3.41656,-1.63995 6.83313,-1.82217 0.22777,-0.0456 0.40999,-0.0456 0.22777,0 0.45554,0 0.45554,0 0.91108,0.0456 0.45554,0 0.91109,0.0456 1.45773,0.18222 2.7788,0.68332 1.36663,0.45554 2.45993,1.13885 2.1866,1.45773 3.05213,4.00877 0.91108,2.50548 0.5011,5.23873 0,0.13667 -0.0456,0.27333 -0.0455,0.13666 -0.0455,0.27332 -0.0911,0.31888 -0.18222,0.68332 -0.0911,0.31888 -0.18222,0.63776 -0.40998,1.32107 -1.13885,2.64214 -0.72887,1.27552 -1.73106,2.41437 z m -14.98733,-9.15639 q -0.0911,0.13666 -0.18222,0.27332 -0.0456,0.13666 -0.13666,0.31888 -0.27333,0.54665 -0.5011,1.13886 -0.18221,0.54665 -0.27332,1.04774 -0.54665,2.6877 1.04774,4.50987 1.63996,1.77661 3.96322,1.95883 0.0911,0 0.18222,0 0.0911,0 0.18221,0 0.22777,0 0.5011,0 0.27332,-0.0455 0.5011,-0.0911 1.27551,-0.22777 2.55103,-0.95664 1.27552,-0.77442 2.27771,-2.09549 0.54665,-0.72887 0.91108,-1.5944 0.40999,-0.86553 0.59221,-1.73106 0.0455,-0.22777 0.0455,-0.45554 0.0456,-0.27332 0.0911,-0.50109 0.0911,-1.32108 -0.27332,-2.55104 -0.36444,-1.22996 -1.27552,-2.00438 -0.5011,-0.40999 -1.22996,-0.68332 -0.68332,-0.27332 -1.36663,-0.36443 -0.22777,0 -0.45554,0 -0.18222,-0.0456 -0.40999,-0.0456 -1.86772,0 -3.781,1.0022 -1.86772,0.95663 -2.96102,2.82436 z" style="font-style:italic;-inkscape-font-specification:'Courier-Bold Italic'" id="path312" />
      <path d="m 256.28249,129.28417 q -2.1866,2.36882 -5.05651,3.55323 -2.82436,1.13885 -5.69428,1.32107 -0.27332,0.0456 -0.5922,0.0456 -0.27333,0 -0.54665,0 -0.86553,0 -1.73106,-0.0911 -0.86553,-0.0456 -1.63996,-0.22777 -4.14543,-0.68332 -6.14981,-3.91767 -2.00439,-3.23434 -1.22997,-7.19756 0.13667,-0.54665 0.27333,-1.04775 0.13666,-0.54665 0.40999,-1.0933 0.27332,-0.72886 0.63776,-1.45773 0.40998,-0.72887 0.86553,-1.41218 2.09549,-3.05213 5.4665,-4.69208 3.41657,-1.63995 6.83313,-1.82217 0.22777,-0.0456 0.40999,-0.0456 0.22777,0 0.45554,0 0.45554,0 0.91108,0.0456 0.45555,0 0.91109,0.0456 1.45773,0.18222 2.7788,0.68332 1.36663,0.45554 2.45993,1.13885 2.1866,1.45773 3.05213,4.00877 0.91109,2.50548 0.5011,5.23873 0,0.13667 -0.0456,0.27333 -0.0455,0.13666 -0.0455,0.27332 -0.0911,0.31888 -0.18222,0.68332 -0.0911,0.31888 -0.18221,0.63776 -0.40999,1.32107 -1.13886,2.64214 -0.72887,1.27552 -1.73106,2.41437 z m -14.98733,-9.15639 q -0.0911,0.13666 -0.18222,0.27332 -0.0456,0.13666 -0.13666,0.31888 -0.27332,0.54665 -0.5011,1.13886 -0.18221,0.54665 -0.27332,1.04774 -0.54665,2.6877 1.04775,4.50987 1.63995,1.77661 3.96321,1.95883 0.0911,0 0.18222,0 0.0911,0 0.18221,0 0.22778,0 0.5011,0 0.27333,-0.0455 0.5011,-0.0911 1.27551,-0.22777 2.55103,-0.95664 1.27552,-0.77442 2.27771,-2.09549 0.54665,-0.72887 0.91109,-1.5944 0.40998,-0.86553 0.5922,-1.73106 0.0456,-0.22777 0.0456,-0.45554 0.0455,-0.27332 0.0911,-0.50109 0.0911,-1.32108 -0.27332,-2.55104 -0.36444,-1.22996 -1.27552,-2.00438 -0.5011,-0.40999 -1.22996,-0.68332 -0.68332,-0.27332 -1.36663,-0.36443 -0.22777,0 -0.45554,0 -0.18222,-0.0456 -0.40999,-0.0456 -1.86772,0 -3.781,1.0022 -1.86772,0.95663 -2.96102,2.82436 z" style="font-style:italic;-inkscape-font-specification:'Courier-Bold Italic'" id="path314" />
      <path d="m 269.44763,118.35116 q -1.32107,0 -2.09549,-0.63776 -0.72887,-0.68331 -0.5011,-1.82216 0,-0.13667 0.0455,-0.31888 0.0911,-0.22777 0.18222,-0.40999 0.0911,-0.18222 0.13666,-0.31888 0.0911,-0.18222 0.18222,-0.31888 0.40999,-0.86553 1.27552,-1.13885 0.86553,-0.31888 1.77661,-0.36444 0.0456,0 0.0911,0 0.0455,0 0.0911,0 0.13666,0 0.27332,0 0.18222,0 0.36444,0 0.13666,0.0456 0.22777,0.0456 0.13666,0 0.27332,0 0.27333,0 0.5011,0.0456 0.27333,0 0.5011,0 l 1.0933,-5.60317 q 0.0455,-0.0455 0,-0.0911 0,-0.0456 0,-0.13667 0.0455,-0.0456 0,-0.0911 0,-0.0456 0,-0.0911 0.0455,-0.13667 0.0911,-0.27333 0.0455,-0.13666 0.0911,-0.27332 0.0911,-0.31888 0.22778,-0.59221 0.18221,-0.27332 0.40998,-0.5011 0.40999,-0.36443 0.81998,-0.5922 0.45554,-0.27332 0.91108,-0.36443 0.18222,-0.0456 0.31888,-0.0456 0.18222,-0.0456 0.31888,-0.0456 0.0911,0 0.18222,0 0.0911,0 0.18221,0 1.0022,0.13666 1.73106,1.00219 0.77443,0.86553 0.5011,2.09549 l -1.0933,5.60317 h 7.28867 q 1.41218,0 2.09549,0.59221 0.68332,0.5922 0.40999,1.77661 -0.0455,0.27332 -0.18221,0.63776 -0.0911,0.36443 -0.27333,0.72886 -0.5011,1.0022 -1.36663,1.27552 -0.81997,0.22777 -1.73105,0.22777 h -7.28868 l -1.22996,6.01316 q 0,0.18221 -0.0455,0.40999 -0.0456,0.18221 -0.0911,0.36443 -0.13667,0.95664 -0.0911,1.82217 0.0455,0.86553 0.77442,1.36662 0.31888,0.22777 0.72887,0.36444 0.40999,0.13666 0.86553,0.18221 0.0911,0.0456 0.22777,0.0456 0.18222,0 0.31888,0 0.22777,0 0.45554,0 0.22777,-0.0456 0.40999,-0.0456 0.45554,-0.0455 0.86553,-0.13666 0.45554,-0.0911 0.81997,-0.18222 0.40999,-0.13666 0.95664,-0.36443 0.59221,-0.22777 1.18441,-0.45554 0.31888,-0.13666 0.68331,-0.27333 0.40999,-0.13666 0.77442,-0.27332 0.54665,-0.13666 1.04775,-0.22777 0.5011,-0.13667 0.91109,-0.13667 0.72886,0 1.27551,0.36444 0.59221,0.31888 0.72887,1.22996 -0.0455,0.0911 -0.0455,0.18222 0,0.0911 0,0.13666 0,0.18222 0,0.36443 0,0.13667 -0.0456,0.27333 -0.27332,1.41218 -1.86772,2.36882 -1.5944,0.91108 -3.37101,1.45773 -1.18441,0.36444 -2.23216,0.54665 -1.04774,0.18222 -1.6855,0.22777 -0.18222,0 -0.40999,0 -0.22777,0.0456 -0.45554,0.0456 -0.18222,0 -0.36444,0 -0.13666,0.0456 -0.27332,0.0456 -0.31888,0 -0.63776,0 -0.31888,0.0456 -0.5922,0.0456 -0.31888,0 -0.63776,0 -0.27333,0 -0.59221,-0.0456 -1.18441,-0.0911 -2.32326,-0.36443 -1.0933,-0.31888 -2.00439,-0.95664 -1.41218,-0.95664 -1.59439,-2.59659 -0.18222,-1.6855 0.0911,-3.46212 0.0456,-0.36443 0.0911,-0.77442 0.0911,-0.40999 0.13667,-0.77442 0.0455,-0.22777 0.0911,-0.40999 0.0456,-0.18222 0.0456,-0.36443 l 1.22996,-6.01316 h -2.1866 z" style="font-style:italic;-inkscape-font-specification:'Courier-Bold Italic'" id="path316" />
      <path d="m 302.24662,131.19745 -0.13666,0.81997 q -0.13666,0.68332 -0.50109,1.22997 -0.36444,0.54665 -1.27552,0.54665 h -4.64653 q -0.86553,-0.0911 -1.32107,-0.77442 -0.40999,-0.72887 -0.36444,-1.54885 0.0456,-0.0911 0.0456,-0.13666 0,-0.0911 0,-0.13666 0.0455,-0.0911 0.0455,-0.18222 0.0456,-0.13666 0.0911,-0.22777 0.31888,-0.86553 1.13886,-1.54884 0.86553,-0.68332 2.14104,-0.68332 h 0.22777 l 4.14544,-20.6816 h -0.22777 q -1.36663,0 -1.95883,-0.72887 -0.54666,-0.77442 -0.45555,-1.68551 0.0456,-0.0456 0.0456,-0.0911 0,-0.0911 0,-0.13667 0.0455,-0.0911 0.0455,-0.18221 0.0456,-0.13667 0.0911,-0.22777 0.31888,-0.86553 1.0933,-1.54885 0.81998,-0.68331 1.91328,-0.68331 h 0.0455 q 0.27333,0 0.63776,-0.0456 0.40999,-0.0456 0.91108,-0.0911 0.31888,0 0.63776,0 0.31888,-0.0456 0.63776,-0.0911 0.13666,0 0.27333,0 0.13666,0 0.27332,0 1.18441,0 2.00439,0.36443 0.86553,0.36444 0.63776,1.50329 l -1.95884,9.70305 q 1.22997,-0.91109 2.50549,-1.41218 1.32107,-0.5011 2.59659,-0.72887 0.36443,-0.0456 0.72886,-0.0456 0.36444,-0.0456 0.72887,-0.0456 4.19099,0 7.01535,3.14324 2.82436,3.14324 1.82216,8.1542 l -0.0455,0.40999 q -1.00219,4.78319 -4.60097,7.562 -3.55323,2.73325 -7.24312,3.18879 -0.36444,0.0456 -0.72887,0.0456 -0.36443,0.0456 -0.72887,0.0456 -1.95883,0 -3.68989,-0.72887 -1.73106,-0.72887 -2.59659,-2.32326 z m 2.82436,-8.51864 q -0.0456,0.0911 -0.0911,0.22777 -0.0456,0.0911 -0.0456,0.18222 0,0.0911 -0.0455,0.22777 -0.0456,0.0911 -0.0911,0.18222 -0.40999,2.1866 0.5011,3.96321 0.91108,1.77662 3.50767,1.77662 2.55103,0 4.3732,-1.95883 1.82217,-1.95883 2.36882,-4.32765 0,-0.0456 0,-0.0456 0,-0.0456 0,-0.0911 0.0455,-0.13666 0.0455,-0.27332 0.0456,-0.18222 0.0456,-0.31888 0.22777,-1.77661 -0.54665,-3.2799 -0.77442,-1.54884 -2.6877,-1.91328 h -0.95664 q -2.36882,0 -4.09988,1.77662 -1.6855,1.73105 -2.27771,3.8721 z" style="font-style:italic;-inkscape-font-specification:'Courier-Bold Italic'" id="path318" />
      <path d="m 350.53405,119.71779 -1.77661,8.83751 h 0.18222 q 1.32107,0 1.86772,0.68332 0.54665,0.68331 0.5011,1.54884 0.0456,0.0911 0,0.22777 0,0.0911 -0.0456,0.18222 0,0.0455 0,0.0911 0,0.0456 0,0.0911 -0.22777,0.72887 -0.77442,1.41218 -0.5011,0.63776 -1.22996,0.86553 -0.0911,0 -0.27333,0.0456 -0.13666,0 -0.27332,0 -0.22777,0.0455 -0.45555,0.0455 -0.22777,0 -0.45554,0.0456 -0.18221,0 -0.31888,0 -0.13666,0 -0.27332,0 -0.0456,0 -0.13666,0 -0.0456,0 -0.13667,0 -0.45554,0 -0.91108,0 -0.40999,-0.0456 -0.81998,-0.0911 -0.22777,0 -0.40998,0 -0.13667,-0.0456 -0.27333,-0.0456 -0.5922,-0.0911 -0.81998,-0.50109 -0.22777,-0.45554 -0.36443,-1.00219 0,-0.13667 -0.0456,-0.22778 -0.0456,-0.13666 -0.0911,-0.27332 -2.09549,1.13885 -4.32765,1.86772 -2.1866,0.68331 -4.46431,0.72887 l -0.31888,0.0455 q -0.18222,-0.0455 -0.36444,-0.0455 -0.18221,0 -0.36443,0 -2.50548,-0.18222 -4.46431,-1.41218 -1.91328,-1.27552 -1.82217,-3.96322 0,-0.18221 0,-0.31888 0.0456,-0.18221 0,-0.31888 0.0456,-0.27332 0.0456,-0.50109 0.0456,-0.27333 0.0911,-0.5011 0.54665,-2.7788 2.73326,-4.60097 2.1866,-1.86772 5.19317,-2.45993 0.5011,-0.0911 1.04775,-0.18222 0.54665,-0.0911 1.0933,-0.13666 0.54665,-0.0911 1.04775,-0.0911 0.54665,-0.0456 1.04775,-0.0456 0.5922,0 1.13885,0.0456 0.54665,0.0456 1.13886,0.0911 0.50109,0.0456 0.95663,0.13666 0.45555,0.0456 0.91109,0.0911 0.31888,0.0456 0.5922,0.0911 0.31888,0.0456 0.54665,0.0911 0.5011,-2.41437 -0.40999,-3.64434 -0.86553,-1.22996 -2.64214,-1.22996 -0.5922,0 -1.36662,0.18222 -0.72887,0.13666 -1.54885,0.40998 -0.31888,0.13667 -0.81997,0.36444 -0.5011,0.22777 -1.04775,0.45554 -0.36443,0.13666 -0.72887,0.27333 -0.31888,0.13666 -0.68331,0.27332 -0.5922,0.18222 -1.13885,0.31888 -0.54666,0.13666 -1.0022,0.13666 -0.68331,0 -1.18441,-0.31888 -0.50109,-0.36443 -0.5922,-1.13885 -0.0456,-0.0911 -0.0456,-0.18222 0,-0.0911 -0.0455,-0.18222 0,-0.22777 0,-0.40998 0,-0.18222 0,-0.31888 0.31888,-1.45774 2.00439,-2.27771 1.6855,-0.81998 3.64433,-1.22997 1.36663,-0.31887 2.59659,-0.40998 1.27552,-0.13667 1.91328,-0.13667 h 1.32107 q 0.36443,0 0.72887,0.0456 0.40998,0 0.81997,0 1.41218,0.13666 2.73325,0.54665 1.32108,0.36443 2.27771,1.18441 1.54885,1.32107 1.50329,3.05213 0,1.6855 -0.40999,3.68989 z M 333.679,127.462 q -0.0455,1.04775 0.68331,1.50329 0.77442,0.45554 1.77662,0.59221 0.22777,0 0.45554,0.0455 0.22777,0 0.45554,0 1.63995,-0.0911 3.14324,-0.5922 1.54884,-0.54665 3.00658,-1.41218 l 0.72887,-3.59879 q -0.54666,-0.13666 -1.18441,-0.22777 -0.59221,-0.0911 -1.18441,-0.18221 -0.45554,-0.0456 -0.95664,-0.0456 -0.45554,-0.0456 -0.91109,-0.0456 -0.72886,0 -1.45773,0.0911 -0.68331,0.0456 -1.45773,0.27332 -1.0022,0.31888 -1.91328,1.13886 -0.91108,0.81997 -1.13886,1.86772 0,0.0456 -0.0456,0.13666 0,0.0911 0.0456,0.13666 0,0.0911 -0.0456,0.18222 0,0.0911 0,0.13666 z" style="font-style:italic;-inkscape-font-specification:'Courier-Bold Italic'" id="path320" />
      <path d="m 372.35449,107.8737 q -0.18221,0 -0.45554,0.0456 -0.27332,0 -0.5922,0.0456 -0.13666,0 -0.27333,0.0456 -0.13666,0 -0.27332,0 -0.18222,0.0455 -0.36444,0.0455 -0.13666,0 -0.31888,0 -0.0911,0 -0.22777,0 -0.0911,0 -0.22777,0 -0.91108,-0.0911 -1.63995,-0.45554 -0.72887,-0.36443 -0.81997,-1.18441 0,-0.0911 -0.0456,-0.18221 0,-0.0911 0.0456,-0.18222 -0.0456,-0.22777 -0.0456,-0.5011 0,-0.27332 0.0456,-0.45554 0.22777,-1.18441 1.22996,-1.82217 1.04775,-0.68331 2.36882,-0.68331 h 7.10645 q 0.0456,0 0.0456,0 0.0455,0 0.0911,0 0.45554,0.0456 0.81997,0.27333 0.36443,0.22777 0.22777,0.77442 l -4.96541,24.91814 h 5.14763 l 0.13666,0.0911 q 1.22996,0 1.91328,0.63776 0.68331,0.59221 0.45554,1.73106 -0.0455,0.18222 -0.13666,0.45554 -0.0456,0.27333 -0.13667,0.5011 0,0.0911 -0.0455,0.18222 -0.0455,0.0911 -0.13666,0.18221 -0.40999,0.81998 -1.0933,1.0933 -0.68332,0.27333 -1.41218,0.36444 -0.13667,0 -0.31888,0 -0.13667,0 -0.27333,0 h -16.12618 q -1.27552,0 -2.04994,-0.59221 -0.72887,-0.5922 -0.40999,-2.04994 0.27332,-1.54884 1.22996,-2.04994 1.00219,-0.54665 2.27771,-0.54665 h 5.10207 l 4.14543,-20.6816 z" style="font-style:italic;-inkscape-font-specification:'Courier-Bold Italic'" id="path322" />
      <path d="m 403.55908,107.8737 q -0.18221,0 -0.45554,0.0456 -0.27332,0 -0.5922,0.0456 -0.13667,0 -0.27333,0.0456 -0.13666,0 -0.27332,0 -0.18222,0.0455 -0.36444,0.0455 -0.13666,0 -0.31888,0 -0.0911,0 -0.22777,0 -0.0911,0 -0.22777,0 -0.91108,-0.0911 -1.63995,-0.45554 -0.72887,-0.36443 -0.81997,-1.18441 0,-0.0911 -0.0456,-0.18221 0,-0.0911 0.0456,-0.18222 -0.0456,-0.22777 -0.0456,-0.5011 0,-0.27332 0.0456,-0.45554 0.22777,-1.18441 1.22996,-1.82217 1.04775,-0.68331 2.36882,-0.68331 h 7.10645 q 0.0456,0 0.0456,0 0.0455,0 0.0911,0 0.45555,0.0456 0.81998,0.27333 0.36443,0.22777 0.22777,0.77442 l -4.96541,24.91814 h 5.14763 l 0.13666,0.0911 q 1.22996,0 1.91328,0.63776 0.68331,0.59221 0.45554,1.73106 -0.0455,0.18222 -0.13666,0.45554 -0.0456,0.27333 -0.13667,0.5011 0,0.0911 -0.0455,0.18222 -0.0455,0.0911 -0.13666,0.18221 -0.40999,0.81998 -1.0933,1.0933 -0.68332,0.27333 -1.41218,0.36444 -0.13667,0 -0.31888,0 -0.13667,0 -0.27333,0 h -16.12618 q -1.27552,0 -2.04994,-0.59221 -0.72887,-0.5922 -0.40999,-2.04994 0.27332,-1.54884 1.22996,-2.04994 1.00219,-0.54665 2.27771,-0.54665 h 5.10207 l 4.14543,-20.6816 z" style="font-style:italic;-inkscape-font-specification:'Courier-Bold Italic'" id="path324" />
    </g>
    <g aria-label="F" transform="scale(0.9914289,1.0086452)" id="text9993" style="font-style:italic;font-size:94.089px;font-family:Courier-Bold;-inkscape-font-specification:'Courier-Bold Italic';text-align:center;text-anchor:middle;opacity:1;fill:#ccc;stroke:black;stroke-width:4.218;stroke-linejoin:round;paint-order:markers stroke fill">
      <path d="m 220.97383,74.021328 q 2.72858,0 3.76356,0.846801 1.12906,0.752712 0.56453,3.481293 l -2.25814,11.102502 q -0.56453,2.916759 -2.25813,4.798539 -1.59952,1.787691 -4.04583,1.787691 -0.28227,0 -0.75271,0 -0.37636,-0.09409 -0.65862,-0.282267 -0.37636,0 -0.65863,-0.09409 -0.28226,-0.188178 -0.47044,-0.282267 -1.59951,-0.470445 -1.97587,-1.975869 -0.37636,-1.599513 -0.0941,-3.387204 0,-0.188178 0,-0.282267 0.0941,-0.188178 0.0941,-0.376356 0.0941,-0.470445 0.18818,-0.846801 0.18818,-0.470445 0.28226,-0.94089 0.0941,-0.282267 0.18818,-0.470445 0.0941,-0.188178 0.0941,-0.470445 0.28227,-0.658623 0.37636,-1.223157 0.18817,-0.658623 0.28226,-1.129068 h -22.95771 l -2.5404,12.702015 h 8.65618 l -0.0941,-0.376356 q 0.56454,-2.634492 2.25814,-4.234005 1.78769,-1.693602 3.85765,-1.693602 0.37636,0 0.8468,0.09409 0.47045,0 1.03498,0.188178 0.28227,0.09409 0.56453,0.188178 0.37636,0.09409 0.65863,0.282267 0.8468,0.658623 1.03498,1.975869 0.28226,1.223157 0.0941,2.540403 0.0941,0.376356 0,0.846801 -0.0941,0.376356 -0.18817,0.752711 -0.0941,0.658623 -0.28227,1.317246 -0.18818,0.564534 -0.28227,1.129068 -0.0941,0.564539 -0.28226,1.129069 -0.18818,0.47044 -0.18818,0.8468 l -0.94089,4.42218 q -0.47045,2.6345 -1.78769,4.70445 -1.22316,2.06996 -4.51628,2.06996 -2.63449,0 -3.66947,-1.50542 -0.94089,-1.59952 -0.47044,-3.95174 0,0 0.0941,-0.0941 0.0941,-0.0941 0.0941,-0.18818 0,-0.0941 0.0941,-0.18818 0.0941,-0.0941 0.0941,-0.0941 h -8.65618 l -2.91676,14.39561 h 2.06996 q 2.63449,0 4.42218,0.8468 1.88178,0.8468 1.22316,4.51627 -0.65863,2.91676 -2.6345,4.23401 -1.88178,1.22316 -4.51627,1.22316 H 169.0367 q -2.63449,0 -4.13992,-1.22316 -1.50542,-1.31725 -0.94089,-3.95174 0,-0.18818 0.0941,-0.37635 0.0941,-0.18818 0.18818,-0.37636 0,-0.18818 0.0941,-0.37636 0.0941,-0.18817 0.0941,-0.37635 0.65862,-2.16405 2.44631,-3.10494 1.78769,-1.03498 3.66947,-1.03498 h 0.65863 l 7.33894,-36.600618 q -2.16405,0 -3.66947,-0.846801 -1.50543,-0.94089 -1.41134,-3.293115 0,-0.09409 0,-0.188178 0,-0.09409 0,-0.188178 0.0941,-0.09409 0,-0.188178 0,-0.09409 0,-0.188178 0.0941,-0.188178 0,-0.282267 0,-0.188178 0,-0.282267 0.65863,-2.916759 2.54041,-4.139916 1.97586,-1.317246 4.89262,-1.317246 h 40.08192 z" id="path327" />
    </g>
  </g>
</svg>
